<?xml version="1.0" encoding="utf-8"?>
<!-- Generator: Adobe Illustrator 27.0.0, SVG Export Plug-In . SVG Version: 6.00 Build 0)  -->
<svg version="1.1" id="Calque_1" xmlns="http://www.w3.org/2000/svg" xmlns:xlink="http://www.w3.org/1999/xlink" x="0px" y="0px"
	 viewBox="0 0 400 400" style="enable-background:new 0 0 400 400;" xml:space="preserve">
<style type="text/css">
	.st0{fill:#FFFFFF;}
</style>
<path class="st0" d="M307.5,212.3c0.6,59.6,52.3,79.5,52.9,79.7c-0.4,1.4-8.3,28.3-27.3,56c-16.4,24-33.5,47.9-60.3,48.4
	c-26.4,0.5-34.9-15.6-65-15.6c-30.2,0-39.6,15.1-64.6,16.1c-25.9,1-45.7-26-62.2-49.9c-33.8-48.9-59.7-138.2-25-198.5
	c17.2-29.9,48.1-48.9,81.5-49.4c25.4-0.5,49.5,17.1,65,17.1c15.5,0,44.7-21.2,75.4-18.1c12.8,0.5,48.9,5.2,72.1,39.1
	C348.2,138.5,307.1,162.5,307.5,212.3 M257.9,65.9c13.8-16.7,23-39.8,20.5-62.9c-19.8,0.8-43.8,13.2-58,29.9
	c-12.7,14.7-23.9,38.3-20.9,60.9C221.6,95.5,244.2,82.6,257.9,65.9"/>
</svg>
