<?xml version="1.0" encoding="utf-8"?>
<!-- Generator: Adobe Illustrator 27.0.0, SVG Export Plug-In . SVG Version: 6.00 Build 0)  -->
<svg version="1.1" id="Calque_1" xmlns="http://www.w3.org/2000/svg" xmlns:xlink="http://www.w3.org/1999/xlink" x="0px" y="0px"
	 viewBox="0 0 400 400" style="enable-background:new 0 0 400 400;" xml:space="preserve">
<style type="text/css">
	.st0{fill:#4285F4;}
	.st1{fill:#34A853;}
	.st2{fill:#FBBC05;}
	.st3{fill:#EB4335;}
</style>
<g>
	<path class="st0" d="M392,204.4c0-16.1-1.3-27.9-4.1-40.1H203.9V237h108c-2.2,18.1-13.9,45.3-40.1,63.6l-0.4,2.4l58.2,45.1l4,0.4
		C370.7,314.3,392,264,392,204.4"/>
	<path class="st1" d="M203.9,395.9c52.9,0,97.3-17.4,129.7-47.5l-61.8-47.9c-16.5,11.5-38.7,19.6-67.9,19.6
		c-51.8,0-95.8-34.2-111.5-81.4l-2.3,0.2l-60.5,46.8l-0.8,2.2C61.1,351.9,127.3,395.9,203.9,395.9"/>
	<path class="st2" d="M92.5,238.7c-4.1-12.2-6.5-25.3-6.5-38.7c0-13.5,2.4-26.6,6.3-38.7l-0.1-2.6l-61.2-47.6l-2,1
		C15.6,138.6,8,168.4,8,200s7.6,61.4,20.9,87.9L92.5,238.7"/>
	<path class="st3" d="M203.9,79.8c36.8,0,61.6,15.9,75.8,29.2L335,55c-34-31.6-78.1-50.9-131-50.9c-76.6,0-142.8,44-175,108
		l63.3,49.2C108.1,114,152.1,79.8,203.9,79.8"/>
</g>
</svg>
